<svg height="406" width="330" xmlns:xlink="http://www.w3.org/1999/xlink" xmlns="http://www.w3.org/2000/svg">
    <style>
        .text {
            font-style: normal;
            font-variant: normal;
            font-weight: 700;
            font-stretch: normal;
            font-size: 32px;
            font-family: sans-serif;
            text-align: center;
            text-anchor: middle;
            fill: #767676;
            fill-opacity: 1;
        }

        .path1 {
            color: #000;
            clip-rule: nonzero;
            display: inline;
            overflow: visible;
            visibility: visible;
            isolation: auto;
            mix-blend-mode: normal;
            color-interpolation: sRGB;
            color-interpolation-filters: linearRGB;
            solid-color: #000;
            solid-opacity: 1;

            fill-opacity: 1;
            fill-rule: evenodd;
            stroke: #fff;
            stroke-width: 2.2;
            stroke-linecap: round;
            stroke-linejoin: round;
            stroke-miterlimit: 4;
            stroke-dasharray: none;
            stroke-dashoffset: 0;
            stroke-opacity: 1;
            marker: none;
            paint-order: stroke;
            color-rendering: auto;
            image-rendering: auto;
            shape-rendering: auto;
            text-rendering: auto;
            enable-background: accumulate;
        }
        .color1 {
            fill: #fff;
        }
        .color2 {
            fill: #b2b2b2;
        }
        .color3 {
            fill: #ccc;
        }
        .color4 {
            fill: #eee;
        }
    </style>

    <path class="color4"
        style="fill-opacity:1;fill-rule:nonzero;stroke:none;stroke-width:1.6;stroke-linecap:round;stroke-linejoin:round;stroke-miterlimit:4;stroke-dasharray:none;stroke-opacity:1"
        d="M0 0h330v406H0z" />

    <path
        d="M85.757 125.206c21.62-6.23 43.13-12.87 64.81-18.83 6.92-.61 9.5 6.88 10.49 12.36 6.37 22.06 13.13 44.03 19.23 66.16.61 6.68-6.5 9.44-11.88 10.35-19.67 5.67-39.25 11.73-58.98 17.13-6.92.61-9.5-6.88-10.49-12.36-6.37-22.01-13.08-43.93-19.2-66-.4-3.86 2.25-7.81 6.01-8.81z"
        style="fill:#9f9f9f;stroke-width:2.2;stroke-linecap:round;stroke-linejoin:round" />

    <path class="color2"
        d="M143.567 66.216c31.83 9.39 63.75 18.54 95.53 28.07 4.5 2.62 1.26 7.78.45 11.53-9.55 32.38-18.86 64.84-28.55 97.16-2.62 4.5-7.78 1.26-11.53.45-29.78-8.78-59.64-17.33-89.36-26.26-4.5-2.62-1.26-7.78-.45-11.53 9.55-32.38 18.86-64.84 28.55-97.16.96-1.9 3.32-2.89 5.36-2.26z"
        style="stroke:#fff;stroke-width:5.35;stroke-linecap:round;stroke-linejoin:round" />

    <path class="color3"
        d="M147.627 78.406c27.12 7.94 54.25 15.88 81.37 23.83-7.28 24.85-14.56 49.71-21.83 74.56-27.12-7.94-54.25-15.88-81.37-23.83 7.28-24.85 14.56-49.71 21.83-74.56z"
        style="fill-rule:evenodd;stroke:#fff;stroke-width:2.2;stroke-linecap:round;stroke-linejoin:round;marker:none;enable-background:accumulate" />

    <path class="color1"
        d="M147.627 78.406c27.12 7.94 54.25 15.88 81.37 23.83-3.4 11.6-6.79 23.2-10.19 34.8-27.12-7.94-54.25-15.88-81.37-23.83 3.4-11.6 6.79-23.2 10.19-34.8z"
        style="fill-rule:evenodd;stroke:#fff;stroke-width:2.2;stroke-linecap:round;stroke-linejoin:round;marker:none;enable-background:accumulate" />

    <path class="path1 color3" d="M142.367 113.826c6.27-5.64 13.99-9.87 22.22-11.67 1.17.32 2.34.65 3.51.97 1.99-2 3.98-4 5.96-6 12.8 8.76 21.52 23.11 23.53 38.47" />
    <path class="path1 color2" d="M174.547 97.086c-.83 4.18.38 13.7-2.41 14.71-3.55-2.1-5.69-5.79-8.53-8.69-.75 4.05-1.09 8.2-2.84 11.98.56 2.08-1.2 6.27 2.18 5.77 8.49 1.39 17.07 1.67 25.66 1.93-1.39-5.05-2.78-10.1-4.16-15.15-2.11 3.25-3.46.7-4.83-1.64-1.94-2.81-3.35-5.96-5.06-8.92z" />
    <path class="path1 color3" d="M160.837 125.456c6.02-2.78 11.81-6.05 17.97-8.52 3.78-.08 5.59-3.89 8.12-6.07 1.92-.82 5.01-4.1 6.75-1.69 6.79 12.42 13.59 24.84 20.38 37.26" />
    <path class="path1 color2" d="m192.977 107.876 1.92 15.54c-.86 3.31-1.73 6.62-2.59 9.93 1.41 3.29 5.56 5 8.87 3.64 1.04-.22 1.68-1.36 2.78-1.23l6.71-.36c-1.25-.84-2.52-1.66-3.51-2.82-3.44-3.65-5.32-8.46-6.62-13.23-.34-1.32-.61-2.65-.82-4-.99-.14-1.98-.27-2.97-.41-1.22-2.37-2.48-4.72-3.78-7.06z" />
    <path class="path1 color1" d="M150.657 160.246c1.25-7.11 11.26-3.85 16.49-4.87 5.18-.82 13.83 1.17 16.59-3.59-2.41-3.54-12.92-11.73-2.54-11.53 7.21 1.04 13.54-1.24 19.68-4.07 2.68.06 11.45-.49 9.95-.79-7.27.79-14.96-1.29-21.74 2.33-7.39 1.57-15.24-1.36-22.44.92-2.51 3.6 7 10.94-1.87 10.72-11.91 1.39-23.95-1.07-35.82.54-1.62.21-2.76 1.54-3.15 3.07" />

    <text x="-399.023" y="-122.794">
        <tspan x="162.977" y="289.206" class="text">NO IMAGE</tspan>
        <tspan x="162.977" y="327.206" class="text">AVAILABLE</tspan>
    </text>
</svg>
